HIERARCHY
ROOT root
{
	OFFSET	0	13.1	24.9
	CHANNELS 6  Xposition Yposition Zposition Xrotation Yrotation Zrotation
	JOINT spine_1
	{
		OFFSET	0	9.99999	0
		CHANNELS 3  Xrotation Yrotation Zrotation
		JOINT spine_2
		{
			OFFSET	0	112	-10
			CHANNELS 3  Xrotation Yrotation Zrotation
			JOINT spine_3
			{
				OFFSET	0	206.5	19.3
				CHANNELS 3  Xrotation Yrotation Zrotation
				JOINT spine_4
				{
					OFFSET	0	110.4	14.6
					CHANNELS 3  Xrotation Yrotation Zrotation
					JOINT neck_1
					{
						OFFSET	0	71.8	-50.3
						CHANNELS 3  Xrotation Yrotation Zrotation
						JOINT neck_2
						{
							OFFSET	0	86.2	-25.8
							CHANNELS 3  Xrotation Yrotation Zrotation
							JOINT head_ee
							{
								OFFSET	0	179.8	-8.7
								CHANNELS 3  Xrotation Yrotation Zrotation
								End Site
								{
									OFFSET	1	0	0
								}
							}
						}
					}
					JOINT left_clavicle
					{
						OFFSET	-43.2	22.4	-70.8
						CHANNELS 3  Xrotation Yrotation Zrotation
						JOINT left_shoulder
						{
							OFFSET	-93.9	-5.79999	48.7
							CHANNELS 3  Xrotation Yrotation Zrotation
							JOINT left_elbow
							{
								OFFSET	-291.4	-30.8	15.2
								CHANNELS 3  Xrotation Yrotation Zrotation
								JOINT left_lowarm_twist
								{
									OFFSET	-110.7	-3.89999	13.6
									CHANNELS 3  Xrotation Yrotation Zrotation
									JOINT left_hand
									{
										OFFSET	-110.7	-3.89999	13.6
										CHANNELS 3  Xrotation Yrotation Zrotation
										JOINT left_ee
										{
											OFFSET	-80.8	-5.10001	12.1
											CHANNELS 3  Xrotation Yrotation Zrotation
											End Site
											{
												OFFSET	1	0	0
											}
										}
									}
								}
							}
						}
					}
					JOINT right_clavicle
					{
						OFFSET	43.2	22.4	-70.8
						CHANNELS 3  Xrotation Yrotation Zrotation
						JOINT right_shoulder
						{
							OFFSET	93.9	-5.79999	48.7
							CHANNELS 3  Xrotation Yrotation Zrotation
							JOINT right_elbow
							{
								OFFSET	291.4	-30.8	15.2
								CHANNELS 3  Xrotation Yrotation Zrotation
								JOINT right_lowarm_twist
								{
									OFFSET	110.7	-3.89999	13.6
									CHANNELS 3  Xrotation Yrotation Zrotation
									JOINT right_hand
									{
										OFFSET	110.7	-3.89999	13.6
										CHANNELS 3  Xrotation Yrotation Zrotation
										JOINT right_ee
										{
											OFFSET	80.8	-5.10001	12.1
											CHANNELS 3  Xrotation Yrotation Zrotation
											End Site
											{
												OFFSET	1	0	0
											}
										}
									}
								}
							}
						}
					}
				}
			}
		}
	}
	JOINT left_hip
	{
		OFFSET	-82.8	-127.5	0.300001
		CHANNELS 3  Xrotation Yrotation Zrotation
		JOINT left_knee
		{
			OFFSET	-28.2	-396.7	2.2
			CHANNELS 3  Xrotation Yrotation Zrotation
			JOINT left_ankle
			{
				OFFSET	-11.7	-411.3	35.4
				CHANNELS 3  Xrotation Yrotation Zrotation
				JOINT left_toes
				{
					OFFSET	0	-60	-88.6
					CHANNELS 3  Xrotation Yrotation Zrotation
					JOINT left_foot_ee
					{
						OFFSET	-22.5	-16.5	-42.2
						CHANNELS 3  Xrotation Yrotation Zrotation
						End Site
						{
							OFFSET	1	0	0
						}
					}
				}
			}
		}
	}
	JOINT right_hip
	{
		OFFSET	82.8	-127.5	0.300001
		CHANNELS 3  Xrotation Yrotation Zrotation
		JOINT right_knee
		{
			OFFSET	28.2	-396.7	2.2
			CHANNELS 3  Xrotation Yrotation Zrotation
			JOINT right_ankle
			{
				OFFSET	11.7	-411.3	35.4
				CHANNELS 3  Xrotation Yrotation Zrotation
				JOINT right_toes
				{
					OFFSET	0	-60	-88.6
					CHANNELS 3  Xrotation Yrotation Zrotation
					JOINT right_foot_ee
					{
						OFFSET	22.5	-16.5	-42.2
						CHANNELS 3  Xrotation Yrotation Zrotation
						End Site
						{
							OFFSET	1	0	0
						}
					}
				}
			}
		}
	}
}
MOTION
Frames: 6
Frame Time: 0.02
2274.38 722.328 -1383.47 -0.435717 57.0319 -0.199633 0.357211 0.00969298 0.176418 0.357228 -0.00155255 0.176677 0.357229 -0.0375756 0.172642 0.357188 -0.00983853 0.176409 -17.6121 17.0653 6.1279 -18.604 29.492 12.4937 -0.0 0.0 -0.0 4.86186 21.7889 9.4707 -16.4787 -19.556 57.7779 1.38194 -34.3926 0.427701 -52.8357 -4.40761 4.82293 -1.94304 3.2131 -11.5798 -0.0 0.0 -0.0 12.6341 22.5744 -25.1875 -25.2921 35.8907 -55.9148 0.525567 14.5932 -0.0672955 85.1048 4.43908 8.87095 -1.1715 -25.6181 -3.5408 0.0 0.0 0.0 -6.96275 47.9625 3.42137 5.84616 -0.284498 -0.851371 15.9668 -16.1421 -2.42066 17.2448 -0.0 -0.0 -0.0 0.0 -0.0 2.15771 6.53247 1.99126 -3.2935 -0.121524 -0.49077 31.2257 22.6133 4.57257 -22.4827 0.0 0.0 0.0 0.0 0.0 
2271.5 721.828 -1385.32 -0.633001 56.6015 -0.212224 0.393557 0.103332 0.186772 0.393571 0.0912383 0.192968 0.393892 0.050071 0.207495 0.393842 0.0822125 0.196983 -16.7242 16.8093 5.61047 -17.615 29.1505 11.6395 -0.0 0.0 -0.0 4.84707 21.5634 9.4555 -16.6461 -20.1037 58.0462 1.38459 -34.4438 0.429201 -52.8906 -4.41418 4.82548 -2.17667 2.48166 -13.5151 -0.0 0.0 -0.0 12.485 21.222 -24.9584 -24.9577 35.8564 -55.1628 0.533038 14.7916 -0.0691903 85.1762 4.44763 8.87422 -1.09768 -26.313 -4.25009 0.0 0.0 0.0 -6.9916 48.2518 3.53096 5.77095 -0.280288 -0.840607 16.135 -17.5854 -2.47208 16.0568 -0.0 -0.0 -0.0 0.0 -0.0 2.22811 7.65656 1.97092 -3.90156 -0.140861 -0.582086 32.8113 20.9983 4.68129 -22.0203 0.0 0.0 0.0 0.0 0.0 
2265.58 720.585 -1387.63 -1.3477 57.5123 0.454274 0.44868 0.110004 0.225542 0.448704 0.0954293 0.232084 0.449109 0.046454 0.246601 0.449034 0.0848169 0.236169 -16.7476 16.9685 4.57165 -17.7471 30.0356 10.7852 -0.0 0.0 -0.0 4.62346 22.0314 9.12052 -16.9538 -20.3378 58.377 1.45677 -35.8137 0.47074 -53.5797 -4.49682 4.8569 -2.16813 1.60648 -13.8762 -0.0 0.0 -0.0 12.5488 21.2045 -25.1072 -25.0617 35.701 -55.3724 0.477431 13.3064 -0.0556904 85.0448 4.43189 8.86819 -1.122 -27.822 -4.75607 0.0 0.0 0.0 -7.83041 48.3324 3.9075 5.50615 -0.265577 -0.802668 18.2807 -17.8516 -2.77717 17.533 -0.0 -0.0 -0.0 0.0 -0.0 2.49402 9.68863 2.17411 -6.05739 -0.201585 -0.907343 34.8139 20.479 4.87251 -21.8173 0.0 0.0 0.0 0.0 0.0 
2263.88 718.758 -1389.06 -0.72089 58.4057 -0.196804 0.418038 0.178797 0.188927 0.418042 0.166413 0.199921 0.41864 0.122359 0.229543 0.418601 0.157075 0.207338 -17.7895 16.3144 3.94931 -18.8562 29.2385 10.2553 -0.0 0.0 -0.0 4.66216 21.6808 9.18415 -16.7147 -20.1687 59.0466 1.47498 -36.1519 0.481436 -53.4327 -4.47916 4.85028 -2.32673 1.26113 -15.1331 -0.0 0.0 -0.0 12.7583 21.7683 -25.5457 -24.2259 35.8899 -55.6922 0.420653 11.771 -0.0433629 84.961 4.42185 8.86433 -1.17124 -27.6195 -4.40091 0.0 0.0 0.0 -7.86869 48.6919 3.74286 5.93094 -0.28926 -0.863496 19.1157 -19.3955 -2.92932 16.2962 -0.0 -0.0 -0.0 0.0 -0.0 2.77002 7.65116 2.40176 -7.66662 -0.238908 -1.15147 36.0146 20.7343 5.0057 -21.7314 0.0 0.0 0.0 0.0 0.0 
2256.22 719.444 -1391.55 0.332108 57.8553 -1.56391 0.473591 0.347078 0.321861 0.473589 0.325894 0.343294 0.475593 0.249815 0.402057 0.475502 0.310177 0.357558 -17.3279 16.2627 2.87618 -18.4081 29.6724 9.12422 -0.0 0.0 -0.0 5.14355 22.9587 9.83465 -17.347 -18.894 58.3313 1.39793 -34.7005 0.436772 -53.9282 -4.53875 4.87241 -2.20598 0.582986 -14.6253 -0.0 0.0 -0.0 12.9143 24.0601 -25.6925 -25.8563 36.1034 -56.0324 0.45307 12.6499 -0.0502194 83.9824 4.3051 8.81813 -1.20893 -28.9854 -4.7793 0.0 0.0 0.0 -7.74462 47.0083 3.15418 1.9549 -0.0854241 -0.287798 21.5881 -17.8465 -3.22218 17.178 -0.0 -0.0 -0.0 0.0 -0.0 2.07517 6.86053 3.00154 -8.68282 -0.258937 -1.30612 35.9508 19.4368 4.94595 -22.8876 0.0 0.0 0.0 0.0 0.0 
2250.4 717.272 -1391.47 -0.0669481 59.0054 -1.62107 0.4843 0.316253 0.446248 0.484365 0.287217 0.465467 0.48678 0.187353 0.513859 0.486511 0.266155 0.477823 -17.6497 15.4109 3.04783 -18.6198 27.9708 8.98671 -0.0 0.0 -0.0 4.62695 23.6317 9.08644 -17.9311 -20.1606 58.8807 1.46213 -35.9135 0.47388 -54.2865 -4.58196 4.8881 -2.33839 0.711991 -15.4787 -0.0 0.0 -0.0 12.7719 22.9839 -25.4684 -23.9394 35.9084 -56.5073 0.398985 11.1804 -0.039052 85.2566 4.45727 8.87789 -1.42684 -28.9208 -3.58035 0.0 0.0 0.0 -8.0523 48.1577 3.69297 1.19579 -0.0510849 -0.176384 21.7998 -19.286 -3.28899 16.6357 -0.0 -0.0 -0.0 0.0 -0.0 1.80174 8.08809 3.46032 -8.65097 -0.258351 -1.30126 38.3537 17.5896 5.10675 -21.4334 0.0 0.0 0.0 0.0 0.0 
